<svg width="256" height="256" xmlns="http://www.w3.org/2000/svg"><g fill="none" fill-rule="evenodd"><path d="M116.55 65.544c-10.977 10.971-12.716 28.153-4.159 41.1l-45.75 45.776c-12.938-8.55-30.103-6.823-41.078 4.132-12.75 12.753-12.75 33.426 0 46.179a32.658 32.658 0 0 0 18.498 9.209c.987 7 4.219 13.491 9.21 18.497 12.753 12.75 33.427 12.75 46.18 0 10.977-10.971 12.716-28.153 4.159-41.1l45.776-45.775c12.925 8.542 30.074 6.826 41.051-4.108 12.75-12.752 12.75-33.425 0-46.177a32.658 32.658 0 0 0-18.497-9.234 32.655 32.655 0 0 0-9.21-18.5 32.658 32.658 0 0 0-22.605-9.54 32.659 32.659 0 0 0-23.575 9.54Z" fill="#FC9C9C" fill-rule="nonzero"/><path d="M144 16c-44.183 0-80 35.817-80 80M160 192c44.183 0 80-35.817 80-80" stroke="#FC9C9C" stroke-width="32" stroke-linecap="round"/></g></svg>