<svg xmlns="http://www.w3.org/2000/svg" width="128" height="128" viewBox="0 0 128 128"><path fill="#fc7f7f" fill-rule="evenodd" d="M16 64a8 8 0 0 1 8 8v9.656c.864 11.963 10.402 21.466 22.368 22.288l-.048.056H56a8 8 0 1 1 0 16H16a8 8 0 0 1-8-8V72a8 8 0 0 1 8-8m32 0c8.837 0 16 7.163 16 16s-7.163 16-16 16-16-7.163-16-16 7.163-16 16-16M88.112 8.48a19.76 19.76 0 0 1 14.928 16.48A19.728 19.728 0 1 1 89.4 60.928L71.944 78.384c-.81-11.98-10.348-21.519-22.328-22.328l17.456-17.464a19.728 19.728 0 0 1 21.04-30.104"/></svg>