<svg xmlns="http://www.w3.org/2000/svg" width="128" height="128"><g fill="none" fill-rule="evenodd"><path fill="#FC7F7F" fill-rule="nonzero" d="M58.246 32.765a16.311 16.311 0 0 0-2.08 20.557L33.283 76.199C26.29 71.62 16.967 73.06 11.68 79.533c-5.286 6.473-4.829 15.891 1.06 21.822a16.284 16.284 0 0 0 9.251 4.6 16.268 16.268 0 0 0 4.602 9.246c5.926 5.94 15.392 6.425 21.895 1.122 6.502-5.303 7.926-14.669 3.292-21.663l22.89-22.885c6.466 4.264 15.045 3.408 20.536-2.055a16.311 16.311 0 0 0 3.947-16.71 16.324 16.324 0 0 0-13.2-10.99 16.322 16.322 0 0 0-4.601-9.255 16.34 16.34 0 0 0-23.106 0Z"/><path stroke="#FC7F7F" stroke-linecap="round" stroke-width="8" d="M71.98 8c-22.1 0-40.017 17.906-40.017 39.995m48.02 47.993a40.028 40.028 0 0 0 28.296-11.714A39.983 39.983 0 0 0 120 55.994"/></g></svg>