<svg width="64" height="64" xmlns="http://www.w3.org/2000/svg"><g fill="none" fill-rule="evenodd"><rect fill="#1F1F1F" width="64" height="64" rx="8"/><path d="M32.894 18.134a7.076 7.076 0 0 1 4.897 2.067 7.075 7.075 0 0 1 1.996 4.008 7.075 7.075 0 0 1 4.008 12.006 7.076 7.076 0 0 1-8.392 1.194l-.503-.304-9.918 9.918a7.076 7.076 0 0 1-10.907 8.905 7.075 7.075 0 0 1-1.995-4.008 7.076 7.076 0 0 1-4.008-1.995 7.075 7.075 0 0 1 0-10.005 7.076 7.076 0 0 1 8.396-1.2l.504.304 9.913-9.918a7.075 7.075 0 0 1 .9-8.905 7.076 7.076 0 0 1 5.109-2.067Zm21.64 8.666A3.467 3.467 0 0 1 58 30.267c0 11.487-9.312 20.8-20.8 20.8a3.467 3.467 0 0 1 0-6.934c7.658 0 13.867-6.208 13.867-13.866a3.467 3.467 0 0 1 3.466-3.467ZM33.733 6a3.467 3.467 0 1 1 0 6.933c-7.659 0-13.867 6.209-13.867 13.867a3.467 3.467 0 0 1-6.934 0c0-11.488 9.313-20.8 20.8-20.8Z" fill="#FFF" fill-rule="nonzero"/></g></svg>