<?xml version="1.0" encoding="UTF-8"?>
<svg width="16px" height="16px" viewBox="0 0 16 16" version="1.1" xmlns="http://www.w3.org/2000/svg" xmlns:xlink="http://www.w3.org/1999/xlink">
    <title>Artboard</title>
    <g id="Artboard" stroke="none" stroke-width="1" fill="none" fill-rule="evenodd">
        <path d="M11.0138468,1.06090028 C11.9999232,1.29792974 12.7403355,2.11449839 12.88,3.119 C13.8845016,3.25866453 14.7010703,3.99907675 14.9380997,4.98515317 C15.1751292,5.97122958 14.7842812,7.00187622 13.9529969,7.58282029 C13.1217125,8.16376436 12.0195185,8.17653194 11.175,7.615 L10.3276262,8.46176739 C9.59139521,7.35693235 8.64115208,6.40692432 7.53611968,5.67096621 L8.384,4.824 C7.85756381,4.03226388 7.83588305,3.01405518 8.31391251,2.20491462 L8.41617971,2.04600314 C8.99712378,1.2147188 10.0277704,0.823870822 11.0138468,1.06090028 Z" id="Path-2" fill="#FC7F7F" fill-rule="nonzero"></path>
        <polyline id="Path" stroke="#FC7F7F" stroke-width="2" points="4 7 2 14 9 12"></polyline>
        <path d="M10.8761061,12.5032449 L8.93717424,13.0581072 C8.51860879,9.94591657 6.05491524,7.48194436 2.94285873,7.06295574 L3.49775192,5.1240608 C7.17668277,5.74030755 10.0992127,8.58840116 10.8257554,12.2287553 L10.8761061,12.5032449 Z" id="Path" fill="#FC7F7F" fill-rule="nonzero"></path>
    </g>
</svg>