<?xml version="1.0" encoding="UTF-8"?>
<svg width="16px" height="16px" viewBox="0 0 16 16" version="1.1" xmlns="http://www.w3.org/2000/svg" xmlns:xlink="http://www.w3.org/1999/xlink">
    <title>Artboard</title>
    <g id="Artboard" stroke="none" stroke-width="1" fill="none" fill-rule="evenodd">
        <g id="BoneOriginal" transform="translate(7.9989, 8.007) rotate(-45) translate(-7.9989, -8.007)translate(0.295, 4.0539)">
            <path d="M7.505,1.97955016 C7.505,2.94605785 8.305,4.94605785 8.305,5.92662021 L10.5243275,5.92662021 C10.7244292,6.92084803 11.5128261,7.69118885 12.5114224,7.86820614 C13.5100187,8.04522344 14.5151672,7.59281747 15.0448233,6.72795102 C15.5744795,5.86308456 15.5206288,4.76213282 14.9090966,3.95308519 C15.5206288,3.14403755 15.5744795,2.04308581 15.0448233,1.17821936 C14.5151672,0.313352901 13.5100187,-0.139053067 12.5114224,0.0379642312 C11.5128261,0.214981529 10.7244292,0.985322343 10.5243275,1.97955016 L7.505,1.97955016 Z" id="Path" fill="#FC7F7F" fill-rule="nonzero"></path>
            <polyline id="Spring" stroke="#FC7F7F" stroke-width="1.5" stroke-linecap="round" stroke-linejoin="round" points="0 3.94605785 1 5.94605785 2 3.94605785 3 1.94605785 4 3.94605785 5 5.94605785 6 3.94605785 7 1.94605785 8 3.94605785 9 5.94605785 10 3.94605785"></polyline>
        </g>
    </g>
</svg>