<svg width="16" height="16" xmlns="http://www.w3.org/2000/svg"><g fill="none" fill-rule="evenodd"><path d="M7.284 4.096a2.04 2.04 0 0 0-.26 2.57l-2.859 2.86a2.041 2.041 0 0 0-2.567 3.145c.313.312.718.514 1.156.575.061.438.263.843.575 1.156a2.041 2.041 0 0 0 3.147-2.568l2.86-2.861c.808.533 1.88.426 2.566-.257a2.04 2.04 0 0 0-1.156-3.463 2.041 2.041 0 0 0-.575-1.157 2.041 2.041 0 0 0-2.887 0Z" fill="#FC7F7F" fill-rule="nonzero"/><path d="M9 1a5 5 0 0 0-5 5M10 12a5 5 0 0 0 5-5" stroke="#FC7F7F" stroke-linecap="round"/></g></svg>