v 0.100000 0.200000 0.000000
v 0.000000 0.200000 -0.100000
v -0.000000 1.000000 0.000000
v -0.000000 0.000000 0.000000
v 0.000000 0.200000 0.100000
v -0.100000 0.200000 0.000000
vt 0.000000 0.000000
vt 0.000000 0.000000
vt 0.000000 0.000000
vt 0.000000 0.000000
vt 0.000000 0.000000
vt 0.000000 0.000000
vn -0.5774 -0.5774 -0.5774
vn -0.7049 0.0783 -0.7049
vn -0.7049 0.0783 0.7049
vn 0.5774 -0.5774 0.5774
vn 0.5774 -0.5774 -0.5774
vn 0.7049 0.0783 -0.7049
vn -1.0000 0.0000 0.0000
vn 0.7049 0.0783 0.7049
vn -0.5774 -0.5774 0.5774
s off
f 6/1/1 2/2/1 4/3/1
f 6/1/2 3/4/2 2/2/2
f 6/1/3 5/5/3 3/4/3
f 4/3/4 1/6/4 5/5/4
f 1/6/5 4/3/5 2/2/5
f 1/6/6 2/2/6 3/4/6
f 4/3/7 5/5/7 2/2/7
f 1/6/8 3/4/8 5/5/8
f 4/3/9 5/5/9 6/1/9
